<?xml version="1.0" standalone="no"?>
<!DOCTYPE svg PUBLIC "-//W3C//DTD SVG 20010904//EN"
 "http://www.w3.org/TR/2001/REC-SVG-20010904/DTD/svg10.dtd">
<svg version="1.0" xmlns="http://www.w3.org/2000/svg"
 width="4395.000000pt" height="4395.000000pt" viewBox="0 0 4395.000000 4395.000000"
 preserveAspectRatio="xMidYMid meet">

<g transform="translate(0.000000,4395.000000) scale(0.100000,-0.100000)"
fill="#000000" stroke="none">
<path d="M11970 38419 c-564 -32 -1095 -96 -1579 -190 -2874 -561 -5400 -2242
-7019 -4671 -156 -233 -372 -583 -372 -601 0 -4 80 -7 178 -7 195 0 579 -21
840 -45 2057 -192 4024 -967 5667 -2234 663 -512 1299 -1134 1824 -1786 1019
-1264 1738 -2717 2121 -4290 126 -518 221 -1086 264 -1575 37 -422 41 -516 41
-1015 0 -500 -5 -610 -41 -1010 -106 -1184 -429 -2403 -926 -3502 -85 -188
-291 -598 -386 -768 -43 -77 -123 -221 -179 -320 -748 -1335 -1212 -2832
-1348 -4350 -8 -93 -17 -193 -20 -220 -29 -323 -30 -1119 0 -1530 102 -1423
461 -2769 1079 -4040 441 -906 1001 -1740 1690 -2515 169 -190 690 -708 886
-881 1715 -1512 3800 -2439 6060 -2693 391 -45 1200 -84 1200 -60 0 4 -37 72
-82 153 -45 80 -141 263 -213 406 -667 1325 -1051 2756 -1147 4275 -16 258
-16 1012 0 1265 111 1729 580 3310 1420 4790 796 1403 1933 2646 3267 3571
1327 921 2842 1537 4430 1803 606 102 1026 137 1795 151 501 9 798 24 1105 55
2223 226 4295 1107 6001 2552 317 269 802 741 1066 1038 1372 1545 2264 3380
2623 5396 162 911 206 1879 130 2819 -97 1181 -394 2359 -872 3460 -144 331
-473 984 -546 1084 -12 17 -17 12 -57 -55 -925 -1573 -2249 -2907 -3811 -3842
-1492 -893 -3138 -1407 -4909 -1534 -292 -20 -1074 -23 -1350 -5 -1551 106
-2924 474 -4259 1141 -1895 948 -3451 2401 -4536 4236 -334 565 -572 922 -888
1329 -433 558 -984 1134 -1537 1607 -1295 1105 -2824 1889 -4482 2298 -641
158 -1167 240 -1898 297 -240 18 -993 27 -1230 13z"/>
</g>
</svg>
