<?xml version="1.0" encoding="UTF-8"?>
<svg id="Capa_1" xmlns="http://www.w3.org/2000/svg" version="1.1" viewBox="0 0 1053.86 1025.13">
  <!-- Generator: Adobe Illustrator 29.5.1, SVG Export Plug-In . SVG Version: 2.1.0 Build 141)  -->
  <path id="path2289" d="M253.65,585.79c52.32-90.62,52.32-202.27,0-292.89C201.33,202.27,104.64,146.45,0,146.45c.19-.32.35-.62.53-.92C52.99,55.42,149.39,0,253.65,0c104.64,0,201.33,55.83,253.65,146.45,52.32,90.62,149.01,146.45,253.66,146.45,104.26,0,200.66-55.42,253.12-145.53l.53-.92c52.32,90.62,52.32,202.28,0,292.9-52.32,90.62-149.01,146.45-253.65,146.45-104.64,0-201.34,55.83-253.66,146.45-52.13,90.29-52.33,201.49-.53,291.97l.53.92c-104.64,0-201.33-55.83-253.65-146.45-52.32-90.62-52.32-202.27,0-292.9h0Z"/>
</svg>